<svg width="64" height="64" viewBox="0 0 64 64" fill="none" xmlns="http://www.w3.org/2000/svg">
  <defs>
    <linearGradient id="g" x1="32" y1="6" x2="32" y2="58" gradientUnits="userSpaceOnUse">
      <stop stop-color="#A855F7"/>
      <stop offset="1" stop-color="#7C3AED"/>
    </linearGradient>
    <filter id="soft" x="-20%" y="-20%" width="140%" height="140%" color-interpolation-filters="sRGB">
      <feGaussianBlur in="SourceGraphic" stdDeviation="0.3"/>
    </filter>
  </defs>

  <!-- Stem -->
  <path d="M32 10C29.8 16.3 29.2 24.7 29.2 32.8C29.2 44.2 30.4 53 32 56C33.6 53 34.8 44.2 34.8 32.8C34.8 24.7 34.2 16.3 32 10Z" fill="url(#g)" filter="url(#soft)"/>

  <!-- Left leaf -->
  <path d="M28.5 12C16 14.5 7.6 24.3 9.2 35.7C10.7 47 21.8 55.3 34 53.6C33.3 44.4 32.3 32.8 32 24.6C31.7 18.9 30.5 14.9 28.5 12Z" fill="url(#g)"/>

  <!-- Right leaf -->
  <path d="M35.5 12C48 14.5 56.4 24.3 54.8 35.7C53.3 47 42.2 55.3 30 53.6C30.7 44.4 31.7 32.8 32 24.6C32.3 18.9 33.5 14.9 35.5 12Z" fill="url(#g)"/>
</svg>
